<svg xmlns="http://www.w3.org/2000/svg"><defs><font id="linecons" horiz-adv-x="1000"><font-face font-family="linecons" font-weight="400" ascent="850" descent="-150"/><glyph glyph-name="music" unicode="" d="M10-45q-22 57 5 118 37 76 131 107 39 14 78 14 69 0 119-37v537q0 23 15 40t36 22l531 94h12q24 0 41-16 22-17 22-47V131q0-35-16-66-37-76-131-108-39-13-78-13-60 0-107 28t-65 77q-21 57 6 117 37 77 131 108 39 14 78 14 68 0 119-38v379l-519-91h-12V38q0-36-16-67-37-76-131-107-39-14-78-14-60 0-107 28T10-45zm57 22q15-41 66-58t107 3 85 62 13 83-66 57-106-2-85-62-14-83zm337 623l531 94v93l-531-93v-94zM660 71q15-41 66-58t107 3 85 62 13 83-66 57-107-3-84-61-14-83z" horiz-adv-x="1000"/><glyph glyph-name="search" unicode="" d="M0-41Q0 6 33 39l260 260q-43 82-43 176 0 154 109 265t266 110 266-110 109-266-109-265-266-109q-94 0-176 43L189-117q-33-33-80-33-45 0-77 32T0-41zm55 1q0-22 16-39t39-16 40 17l252 252q-45 33-78 78L72 0Q55-17 55-40zm258 515q0-129 91-221t221-91 221 91 91 221-91 221-221 91-221-91-91-221zm93 0q0 90 65 154t154 65q16 0 16-16t-16-16q-78 0-133-54t-54-133q0-16-16-16t-16 16z" horiz-adv-x="1000"/><glyph glyph-name="mail" unicode="" d="M0 163v406q0 51 36 88t89 37h750q53 0 89-37t36-88V163q0-53-36-89t-89-36H125q-53 0-89 36T0 163zm63 0q0-26 18-44t44-19h750q25 0 44 19t18 44L693 346 557 245q-26-20-57-20t-57 20L307 346zm0 39l218 164L63 530V202zm0 367l244-184 27-19 129-98q16-12 37-12t37 12l400 301q0 25-18 44t-44 18H125q-25 0-44-18t-18-44zm656-203l218-164v328z" horiz-adv-x="1000"/><glyph glyph-name="heart" unicode="" d="M0 476q0 122 88 210 84 84 204 86t208-78q88 80 208 78t204-86q88-88 88-210t-88-210q-4-4-346-342-27-27-66-27t-66 27q-2 0-346 342Q0 354 0 476zm63 0q0-97 70-165L479-31q21-23 43 0l345 342q70 68 70 165t-70 165q-66 66-160 68t-164-60l-43-39-43 39q-70 62-164 60t-160-68q-70-68-70-165zm93 7q0 55 39 94t94 39q16 0 16-16t-16-16q-41 0-71-29t-30-72q0-16-16-16t-16 16z" horiz-adv-x="1000"/><glyph glyph-name="star" unicode="" d="M4 457q14 41 57 47l262 39 113 235q19 41 64 41t65-41l113-235 262-39q43-6 56-47t-15-70L789 196l43-264q8-43-29-68-18-14-41-14-18 0-35 8L500-19 274-142q-18-8-35-8-24 0-41 14-38 25-30 68l43 264L22 387q-32 29-18 70zm69-21l191-191q25-26 19-61L239-80 465 43q16 8 35 8t35-8L762-80l-45 264q-6 35 20 61l191 191-260 37q-39 6-54 41L500 748 387 514q-16-35-55-39z" horiz-adv-x="1001"/><glyph glyph-name="user" unicode="" d="M4-105q-14 43 25 70Q148 43 320 81q-84 105-119 255-10 55-11 122t23 149 66 138q84 105 223 105t222-105q43-57 67-138t22-149-11-122Q767 186 683 80 855 43 974-35q39-27 26-71t-61-44H64q-21 0-38 13T4-105zm60 17h875Q830-15 672 20l-79 16Q548 6 502 6t-92 30l-78-16Q172-15 64-88zm193 602q-13-103 16-208t96-186l10-14q56-65 123-65t123 65l9 14q67 82 96 186t16 208q-14 113-76 193t-168 80-168-80-77-193z" horiz-adv-x="1003"/><glyph glyph-name="videocam" unicode="" d="M0 100v500q0 39 27 66t67 28h594q39 0 66-28t27-66v-39l84 84q20 17 45 17h27q26 0 44-18t19-44V100q0-27-19-45t-44-17h-27q-25 0-45 17l-84 84v-39q0-39-27-66T688 6H94Q55 6 27 34T0 100zm63 0q0-14 8-22t23-9h594q13 0 22 9t9 22v500q0 14-9 22t-22 9H94q-14 0-23-9t-8-22V100zm687 156l31-31 125-125h31v500h-31L750 444V256z" horiz-adv-x="1000"/><glyph glyph-name="camera" unicode="" d="M0 6v469q0 35 23 61t55 31l135 23 43 108q12 27 35 43t53 15h312q30 0 53-15t35-43l43-108 135-23q33-6 56-31t22-61V6q0-39-27-66t-67-28H94q-39 0-67 28T0 6zm63 0q0-13 8-22t23-9h812q14 0 23 9t8 22v469q0 27-25 31l-170 28-56 140q-8 20-30 20H344q-22 0-30-20l-56-140-170-28q-25-4-25-31V6zm187 282q0 103 73 176t177 74 177-74 73-176-73-177-177-73-177 73-73 177zm63-15q5-77 65-128t137-45 128 65 45 137-66 128-137 45-128-65-44-137zm62 15q0 50 36 87t89 38q16 0 16-16t-16-16q-39 0-66-27t-28-66q0-16-15-16t-16 16z" horiz-adv-x="1000"/><glyph glyph-name="photo" unicode="" d="M0-25v750q0 53 36 89t89 36h687q53 0 89-36t36-89V-25q0-53-36-89t-89-36H125q-53 0-89 36T0-25zm63 0q0-25 18-44t44-19h687q26 0 44 19t19 44v750q0 25-19 44t-44 18H125q-25 0-44-18t-18-44V-25zm62 156v563q0 13 9 22t22 9h625q14 0 23-9t9-22V131q0-13-9-22t-23-9H156q-13 0-22 9t-9 22zm31 0h483l-88 100-18 21-252 286-125-145V131zm0 311l102 117q10 10 23 10t24-10l246-281 82 94q10 9 23 9t24-9l101-112v434H156V442zm344 96q0 39 27 66t67 27 66-27 28-66-28-67-66-27-67 27-27 67zm31 0q0-26 19-44t44-19 44 19 18 44-18 43-44 19-44-19-19-43zm41-284l108-123h101v82L656 350z" horiz-adv-x="937"/><glyph glyph-name="attach" unicode="" d="M0 99q0 91 64 155l456 451q82 82 199 82t199-82 82-199-82-199L574-35q-21-23-44-1t1 44l338 340q65 62 65 153t-65 156-155 64-153-64L107 209q-44-45-44-109t45-110 111-46 109 45l457 451q27 27 27 66t-27 67-66 27-67-27L311 229q-24-22-45 1t0 44l341 343q47 45 112 45t110-45 46-111-45-111L373-54q-64-65-155-65T64-55 0 99z" horiz-adv-x="1000"/><glyph glyph-name="lock" unicode="" d="M0 131v219q0 39 27 66t67 28v125q0 117 82 199t199 82 199-82 82-199V444q39 0 67-28t27-66V131q0-117-82-199t-199-82H281q-117 0-199 82T0 131zm63 0q0-90 64-154t154-65h188q90 0 154 65t65 154v219q0 14-9 22t-23 9H94q-14 0-23-9t-8-22V131zm93 313h63v125q0 64 46 110t110 46 110-46 46-110V444h63v125q0 90-65 154t-154 64-154-64-65-154V444zm94 0h250v125q0 52-36 89t-89 36-89-36-36-89V444zm63-250q0 25 18 44t44 18 44-18 19-44q0-28-22-84-14-41-41-41t-41 41q-21 56-21 84z" horiz-adv-x="750"/><glyph glyph-name="eye" unicode="" d="M0 341v18q0 1 2 3v4q70 130 206 213t290 83 291-83 205-215l1-1 1-1v-4q2-6 2-8t-2-8v-4l-1-1-1-1q-68-132-205-215T498 38t-290 83T2 336v2q-2 2-2 3zm66 9q65-113 183-182t250-68 250 68 183 182q-65 113-183 182t-250 68-250-68T66 350zm213 0q0 90 65 154t154 65 154-65 65-154-65-154-154-65-154 65-65 154zm32 0q0-78 54-133t133-54 133 54 55 133-55 133-133 55-133-55-54-133zm62 0q0 53 37 89t88 36q16 0 16-16t-16-15q-37 0-65-28t-29-66q0-16-15-16t-16 16z" horiz-adv-x="998"/><glyph glyph-name="tag" unicode="" d="M0 100v500q0 51 36 88t89 37h594q68 0 105-59l156-250q43-66 0-132L824 34q-37-59-105-59H125q-53 0-89 36T0 100zm63 0q0-25 18-44t44-18h594q35 0 52 29l157 250q21 33 0 66L771 633q-17 29-52 29H125q-25 0-44-18t-18-44V100zm562 250q0 39 27 66t67 28 66-28 27-66-27-66-66-28-67 28-27 66zm31 0q0-25 19-44t44-18 44 18 18 44-18 44-44 19-44-19-19-44z" horiz-adv-x="1002"/><glyph glyph-name="thumbs-up" unicode="" d="M0-56v500q0 39 27 66t67 28h94q32 0 60-24 12 6 33 16 123 64 125 226 0 39 28 67t66 27q57 0 105-64t49-147q0-66-8-103 237-6 266-14 43-12 66-43t22-63v-23q-2-39-27-68 17-34 11-75-7-54-41-86 16-37 0-84-17-58-52-82 7-27 0-54-6-18-14-34-33-60-111-60H594q-92 0-186 21-92 22-127 30h-2q0 2-3 2h-4v2q-28-55-84-55H94q-39 0-67 27T0-56zm63 0q0-14 8-23t23-9h94q13 0 22 9t9 23v500q0 13-9 22t-22 9H94q-14 0-23-9t-8-22V-56zM94-9q0 19 13 33t34 14 33-14 14-33-14-34-33-13-34 13T94-9zm31 0q0-16 16-16t15 16-15 15-16-15zm125 3q0-23 27-27 22-6 145-35 88-20 172-20h172q41 0 56 28 6 15 8 23 6 12-2 28T799 6h-49q-16 0-16 16t16 16h51q31 0 49 10t22 20 11 30q21 65-39 65h-63q-15 0-15 15t15 16h74q57 0 69 66 2 22-9 40t-42 19h-61q-15 0-15 15t15 16h63q61 0 62 45v21q0 38-37 47-45 12-337 12 19 59 24 84t5 80q0 57-32 103t-60 45q-31 0-31-31-2-92-46-173T281 461q-2 0-4-1l-2-1q-25-8-25-33V-6z" horiz-adv-x="1000"/><glyph glyph-name="pencil" unicode="" d="M0-41q0 4 1 8t1 8 1 8 1 6v2l74 267q10 31 31 53l325 324v2l2 2 150 152q60 59 146 59 106 0 186-80 74-74 81-171t-58-161L465-43q-24-23-55-31l-263-70-3-1q-3-1-7-2t-9-1-10-1-9-1q-45 0-77 32T0-41zm63 0q0-19 13-33t33-14q6 0 22 4l115 32q4 58-43 105-45 45-105 43L66-23q-3-14-3-18zm44 168q67-2 118-52t52-120l116 30 11 6q41 47 34 115t-61 121q-51 49-115 59t-112-24q-7-10-11-21zm131 225q45-2 90-20l295 295q-88 22-144-33zm119-35q38-20 65-45 21-22 41-55l297 299q-16 31-39 55-30 29-67 45zm122-129q17-41 21-82V82l242 245v2q61 60 31 156zm101 508q106 0 186-80 70-73 78-166v-22l52 55q45 45 41 111-5 74-62 131-63 62-143 62-60 0-101-41z" horiz-adv-x="1000"/><glyph glyph-name="comment" unicode="" d="M0 413q0 156 147 265t353 109 354-109 146-266-146-265T500 37q-47 0-96 8-29-35-89-78T193-88h-9q-12 0-20 8t-8 20q0 6 2 12 0 1 13 21t18 29 13 30 13 36 4 32v2Q117 155 59 236T0 412zm63 0q0-75 48-143t137-111q33-18 33-57v-6q0-41-21-92 60 37 95 80 18 24 49 24 4 0 8-2 45-6 88-6 182 0 310 92t127 221-127 220-310 92-310-92T63 413zm93 0q0 89 102 154t242 64q16 0 16-15t-16-16q-125 0-219-57t-93-131q0-15-16-15t-16 15z" horiz-adv-x="1000"/><glyph glyph-name="location" unicode="" d="M0 475q0 156 109 266t266 109 266-109 109-266q0-78-28-160t-85-166T536 8 426-125q-20-25-49-25h-4q-29 0-49 25Q258-48 214 8T113 149 28 315 0 475zm63 0q0-72 28-150t85-161 95-128T371-84h2q2-2 2-4l4 4q62 73 100 120t94 128 86 161 29 150q0 129-92 221t-221 91-221-91-91-221zm125 8q0 78 54 133t133 54 133-54 55-133-55-133-133-55-133 55-54 133zm31 0q0-65 46-111t110-45 110 45 46 111-46 110-110 46-110-46-46-110z" horiz-adv-x="750"/><glyph glyph-name="cup" unicode="" d="M0 538v93q0 26 17 43t42 20l39 113q13 43 58 43h563q45 0 58-43l39-113q24-2 41-20t18-43v-93q0-26-19-44t-44-19h-33l1-3q1-3 1-5L719-95q-4-24-22-39t-41-16H219q-24 0-41 16t-22 39L94 467q0 2 1 5l1 3H63q-26 0-44 19T0 538zm63 0h749v93H63v-93zm62 156h625l-31 93H156zm31-219l10-94h543l10 94H156zm14-125l35-312h465l35 312H170zM209 6l10-93h437l10 93H209z" horiz-adv-x="875"/><glyph glyph-name="trash" unicode="" d="M0 569v68q2 37 29 63t65 25h94v31q0 39 27 67t66 27h313q39 0 66-27t28-67v-31h93q37 0 65-25t29-63v-68q0-26-19-44t-44-19V-25q0-53-36-89t-88-36H188q-53 0-89 36T63-25v531q-26 0-44 19T0 569zm63 0h749v62q0 14-8 23t-23 8H94q-14 0-23-8t-8-23v-62zm62-594q0-25 19-44t44-19h500q25 0 43 19t19 44v531H125V-25zm63 31v407q0 13 8 22t23 9h62q14 0 23-9t9-22V6q0-13-9-22t-23-9h-62q-14 0-23 9t-8 22zm31 0h62v407h-62V6zm31 719h375v31q0 14-9 23t-22 8H281q-13 0-22-8t-9-23v-31zM375 6v407q0 13 9 22t22 9h63q13 0 22-9t9-22V6q0-13-9-22t-22-9h-63q-13 0-22 9t-9 22zm31 0h63v407h-63V6zm157 0v407q0 13 8 22t23 9h62q14 0 23-9t9-22V6q0-13-9-22t-23-9h-62q-14 0-23 9t-8 22zm31 0h62v407h-62V6z" horiz-adv-x="875"/><glyph glyph-name="doc" unicode="" d="M0-25v625q0 39 27 66t67 28h31v62q0 39 27 67t67 27h687q39 0 67-27t27-67V-25q0-53-36-89t-89-36H125q-53 0-89 36T0-25zm63 0q0-25 18-44t44-19h750q25 0 44 19t18 44v781q0 14-8 23t-23 8H219q-14 0-23-8t-8-23V6q0-13-9-22t-23-9-22 9-9 22v625H94q-14 0-23-9t-8-22V-25zM250-9q0 15 16 15h250q15 0 15-15t-15-16H266q-16 0-16 16zm0 93q0 16 16 16h250q15 0 15-16t-15-15H266q-16 0-16 15zm0 94q0 16 16 16h250q15 0 15-16 0-6-5-11t-10-4H266q-16 0-16 15zm0 94q0 16 16 16h593q16 0 16-16t-16-16H266q-16 0-16 16zm0 94q0 15 16 15h593q16 0 16-15t-16-16H266q-16 0-16 16zm0 109v219q0 13 9 22t22 9h219q14 0 22-9t9-22V475q0-14-9-22t-22-9H281q-13 0-22 9t-9 22zm63 31h156v156H313V506zM594-9q0 15 15 15h250q16 0 16-15t-16-16H609q-15 0-15 16zm0 93q0 16 15 16h250q16 0 16-16t-16-15H609q-15 0-15 15zm0 94q0 16 15 16h250q16 0 16-16 0-6-5-11t-11-5H609q-15 0-15 16zm0 281q0 16 15 16h250q16 0 16-16t-16-15H609q-15 0-15 15zm0 94q0 16 15 16h250q16 0 16-16t-16-16H609q-15 0-15 16zm0 94q0 15 15 15h250q16 0 16-15t-16-16H609q-15 0-15 16z" horiz-adv-x="1000"/><glyph glyph-name="note" unicode="" d="M0-25v750q0 39 27 66t67 28h656q25 0 45-18l187-187q18-20 18-45V-25q0-39-27-66t-67-28H94q-39 0-67 28T0-25zm63 0q0-14 8-23t23-8h812q14 0 23 8t8 23v563H813q-40 0-67 27t-27 66v125H94q-14 0-23-9t-8-22V-25zm62 78q0 16 16 16h718q16 0 16-16t-16-15H141q-16 0-16 15zm0 94q0 16 16 16h718q16 0 16-16t-16-16H141q-16 0-16 16zm0 94q0 15 16 15h718q16 0 16-15t-16-16H141q-16 0-16 16zm0 93q0 16 16 16h718q16 0 16-16t-16-15H141q-16 0-16 15zm0 110v187q0 14 9 23t22 8h219q14 0 22-8t9-23V444q0-14-9-23t-22-8H156q-13 0-22 8t-9 23zm63 31h156v125H188V475zm281-47q0 16 15 16h375q16 0 16-16t-16-15H484q-15 0-15 15zm0 94q0 16 15 16h157q15 0 15-16t-15-16H484q-15 0-15 16zm0 94q0 15 15 15h157q15 0 15-15t-15-16H484q-15 0-15 16zm281 15q0-25 19-44t43-18h125L750 756V631z" horiz-adv-x="1000"/><glyph glyph-name="cog" unicode="" d="M0 307v86q0 21 15 39t36 22l96 19q5 20 15 41l-53 80q-13 20-10 42t18 38l59 59q19 19 45 19 19 0 35-11l80-53q21 10 41 16l20 95q3 22 21 36t39 15h86q21 0 39-15t22-36l19-95q20-6 41-16l80 53q16 11 35 11 26 0 45-19l59-59q17-15 19-38t-11-42l-53-80q10-22 16-41l95-20q22-3 36-21t15-39v-86q0-22-15-39t-36-22l-95-19q-6-20-16-41l53-80q13-20 11-42t-19-38l-59-59q-19-19-45-19-19 0-35 11l-80 53Q643 2 623-4l-19-95q-4-22-22-36t-39-15h-86q-21 0-39 14t-21 37L377-4q-20 6-41 16l-80-53q-16-11-35-11-26 0-45 19l-59 59q-15 15-18 38t10 42l53 80q-10 21-15 41l-96 19q-22 4-36 22T0 307zm63 0l95-19q35-6 47-40 6-17 14-35 15-31-4-60l-55-82 61-61 82 55q15 10 33 10 16 0 27-6 18-8 35-14 34-12 40-47l19-96h86l20 96q5 35 39 47 17 6 35 14 11 6 27 6 18 0 33-10l82-55 61 61-55 82q-19 29-4 60 8 18 14 35 12 34 47 40l95 19v86l-95 20q-35 5-47 39-6 17-14 35-15 31 4 60l55 82-61 61-82-55q-15-10-33-10-16 0-27 6-18 8-35 14-34 12-39 47l-20 95h-86l-19-95q-6-35-40-47-17-6-35-14-11-6-27-6-18 0-33 10l-82 55-61-61 55-82q19-29 4-60-8-18-14-35-12-34-47-39l-95-20v-86zm218 43q0 90 65 154t154 65 154-65 65-154-65-154-154-65-154 65-65 154zm28 0q0-80 55-136t136-55 136 55 55 136-55 136-136 55-136-55-55-136zm66 0q0 53 36 89t89 36 89-37 36-89-36-88-89-36-89 36-36 89zm31 0q0-39 28-66t66-28 66 28 28 66-28 66-66 28-66-28-28-66z" horiz-adv-x="1000"/><glyph glyph-name="params" unicode="" d="M0 538q0 76 63 124v94q0 39 27 67t66 27 67-27 27-67v-94q63-48 63-124t-63-125V-56q0-39-27-67t-67-27-66 27-27 67v469Q0 461 0 538zm63 0q0-12 3-26l2-6q4-13 12-23 8-12 20-21t25-12q16-6 31-6t32 6q13 4 25 13 12 8 19 20 8 10 12 23l2 6q4 14 4 26t-4 25q-2 4-2 6-4 13-12 23-7 12-19 21t-25 12q-16 6-32 6t-31-6q-14-4-25-13-10-8-20-20-8-10-12-23l-2-6q-3-14-3-26zm62-594q0-14 9-23t22-9 23 9 9 23v441q-16-4-32-4t-31 4V-56zm0 746q16 4 31 4t32-4v66q0 14-9 23t-23 8-22-8-9-23v-66zm219-527q0 76 62 125v468q0 39 28 67t66 27 66-27 28-67V288q62-49 62-125T594 38v-94q0-39-28-67t-66-27-66 27-28 67v94q-62 48-62 125zm62 0q0-12 4-26l2-6q4-13 12-23 8-12 19-21t26-12q15-6 31-6t31 6q14 4 26 13 11 8 19 20 8 10 12 23 0 2 2 6 4 14 4 26t-4 25l-2 6q-4 13-12 23-8 12-19 20-12 10-26 13-15 6-31 6t-31-6q-14-3-26-13-9-8-19-20-8-10-12-23l-2-6q-4-14-4-25zm63-219q0-14 9-23t22-9 22 9 9 23v66q-15-4-31-4t-31 4v-66zm0 371q15 4 31 4t31-4v441q0 14-9 23t-22 8-22-8-9-23V315zm219 223q0 76 62 124v94q0 39 27 67t67 27 66-27 27-67v-94q63-48 63-124t-63-125V-56q0-39-27-67t-66-27-67 27-27 67v469q-62 48-62 125zm62 0q0-12 4-26l2-6q4-13 12-23 7-12 19-21t25-12q16-6 32-6t31 6q14 4 25 13 12 8 20 20 8 10 12 23 0 2 2 6 3 14 3 26t-3 25l-2 6q-4 13-12 23-8 12-20 20-11 9-25 13-16 6-31 6t-32-6q-13-4-25-13-12-8-19-20-8-10-12-23l-2-6q-4-14-4-26zm62-594q0-14 9-23t23-9 22 9 9 23v441q-16-4-31-4t-32 4V-56zm0 746q16 4 32 4t31-4v66q0 14-9 23t-22 8-23-8-9-23v-66z" horiz-adv-x="1000"/><glyph glyph-name="calendar" unicode="" d="M0-66v738q0 35 24 60t60 24h135v63q0 13 9 22t22 9 22-9 9-22v-63h188v63q0 13 9 22t22 9 22-9 9-22v-63h188v63q0 13 9 22t22 9 22-9 9-22v-63h135q35 0 60-24t24-60V-66q0-35-24-60t-60-24H84q-35 0-60 24T0-66zm63 0q0-10 5-16t16-6h832q10 0 16 6t5 16v738q0 10-5 16t-16 6H781v-63q0-13-9-22t-22-9-22 9-9 22v63H531v-63q0-13-9-22t-22-9-22 9-9 22v63H281v-63q0-13-9-22t-22-9-22 9-9 22v63H84q-10 0-16-6t-5-16V-66zM219 69v94h125V69H219zm0 156v94h125v-94H219zm0 156v94h125v-94H219zM438 69v94h125V69H438zm0 156v94h125v-94H438zm0 156v94h125v-94H438zM656 69v94h125V69H656zm0 156v94h125v-94H656zm0 156v94h125v-94H656z" horiz-adv-x="1000"/><glyph glyph-name="sound" unicode="" d="M0 163q0 39 27 66l98 98v429q0 30 16 53t43 33q15 8 35 8 39 0 66-27l688-688q45-45 19-101-10-28-33-43t-53-16H477l-98-98q-27-27-66-27t-67 27L27 96Q0 123 0 163zm63 0q0-14 9-22L291-78q8-10 22-10t21 10l98 98h2L170 284v-2l-98-98q-9-8-9-21zm123 150L463 36q12 2 14 2h377L188 704V327q0-2-2-14zm2 433L896 38h10q22 0 30 19t-8 33L240 778q-8 9-21 9-6 0-12-1-19-8-19-30v-10zm343 73q0 13 9 22t23 9q181 0 309-128t128-309q0-14-9-23t-22-9-23 9-9 23q0 154-110 264T563 787q-14 0-23 9t-9 23zm16-110q0 16 16 16 128 0 220-92t92-220q0-16-16-16t-15 16q0 117-82 199t-199 82q-16 0-16 15z" horiz-adv-x="1001"/><glyph glyph-name="clock" unicode="" d="M0 350q0 121 86 213l43 236q4 22 21 36t41 15h250q22 0 39-15t22-36l45-244q57-64 72-144l2 1q2 1 4 1 25 0 44-19t19-44-19-44-44-18h-4l-2 1q-17-84-76-148L498-99q-4-22-20-36t-40-15H188q-24 0-40 15t-21 36L82 141Q0 231 0 350zm63 0q0-103 73-177t177-73 176 73 74 177-74 177-176 73-177-73-73-177zm31 0q0 14 9 22t22 9 23-9 8-22-8-22-23-9-22 9-9 22zm54-132q0 13 9 22t23 8 22-8 9-22-9-22-22-10-23 10-9 22zm0 265q0 13 9 22t23 9 22-9 9-22-9-23-22-8-23 8-9 23zm8-402l32-169h250l31 169q-74-43-156-43T156 81zm4 539q74 42 156 42t157-42l-32 167H191zm121-457q0 13 9 22t23 9 22-9 9-22-9-23-22-9-23 9-9 23zm0 187q0 14 10 22l162 134q8 6 14-1t2-14l-76-94-59-70q-8-8-21-8t-23 9-9 22zm0 188q0 13 9 22t23 9 22-9 9-22-9-23-22-9-23 9-9 23zm133-320q0 13 9 22t21 8 23-8 10-23q0-12-10-21t-23-10-21 10-9 22zm55 132q0 14 9 22t22 9 22-9 9-22-9-22-22-9-22 9-9 22z" horiz-adv-x="687"/><glyph glyph-name="lightbulb" unicode="" d="M0 506q0 143 101 243t243 101 243-101 101-243q0-55-30-121t-71-141-56-115q-15-39-31-94t-24-82-27-53-42-39-63-11-64 11-41 39-26 53-25 82-32 94q-13 43-55 116T29 385 0 506zm63 0q0-64 82-213 37-64 52-99h293q16 35 53 99 82 151 82 213 0 117-82 199t-199 82-199-82-82-199zm93 0q0 78 55 133t133 55q15 0 15-16t-15-16q-65 0-111-45t-45-111q0-15-16-15t-16 15zm67-375q11-33 19-60l213 27q2 12 10 33H223zm29-90q10-35 18-60L424 0q6 16 12 38 2 5 4 15t3 12zm29-89q12-26 25-33t38-7q29 0 43 10t27 45z" horiz-adv-x="687"/><glyph glyph-name="tv" unicode="" d="M36 47q-72 303 0 606 10 43 53 47 205 25 410 25t410-25q45-4 55-47 72-303 0-606-12-43-55-47-94-11-197-17 6-4 6-8 0-14-65-22t-154-9-154 9-65 22q0 4 6 8Q183-11 89 0 46 4 36 47zm61 16q402-51 806 0 69 287 0 574-404 51-806 0-69-287 0-574zm60 84q-66 207 0 412 6 18 24 21 129 26 256 26t255-26q18-4 24-21 33-102 33-205t-33-207q-6-18-24-22-129-25-255-25t-256 25q-18 4-24 22zm32 10q248-51 498 0 64 197 0 392-250 53-498 0-65-195 0-392zm62 209l8 88q4 13 19 15l143 12q16 0 16-16t-16-15l-117-8q-16-2-18-18l-6-58q0-16-15-16t-14 16zm498-219q0 16 16 16h93q16 0 16-16t-16-16h-93q-16 0-16 16zm31 94q0 15 16 15h94q15 0 15-15t-15-16h-94q-16 0-16 16zm0 93q0 16 16 16h94q15 0 15-16t-15-15h-94q-16 0-16 15zm0 188q0 19 14 33t33 14 33-14 14-33-14-33-33-14-33 14-14 33zm32 0q0-16 15-16t16 16-16 16-15-16z" horiz-adv-x="1000"/><glyph glyph-name="desktop" unicode="" d="M0 100v625q0 39 27 66t67 28h812q39 0 67-28t27-66V100q0-39-27-66T906 6H594v-37l195-25q23-6 23-32 0-13-8-22t-23-9H219q-14 0-23 9t-8 22q0 26 23 32l195 25V6H94Q55 6 27 34T0 100zm63 0q0-14 8-22t23-9h812q14 0 23 9t8 22v625q0 14-8 22t-23 9H94q-14 0-23-9t-8-22V100zm62 125v437q0 14 9 23t22 9h688q13 0 22-9t9-23V225q0-14-9-22t-22-9H156q-13 0-22 9t-9 22zm31 0h688v437H156V225z" horiz-adv-x="1000"/><glyph glyph-name="mobile" unicode="" d="M0-56v812q0 39 27 67t67 27h500q39 0 66-27t28-67V-56q0-39-28-67t-66-27H94q-39 0-67 27T0-56zm63 0q0-14 8-23t23-9h500q13 0 22 9t9 23V6H63v-62zm0 94h562v624H63V38zm0 656h562v62q0 14-9 23t-22 8H94q-14 0-23-8t-8-23v-62zm218 47q0 15 16 15h94q15 0 15-15t-15-16h-94q-16 0-16 16zm32-782q0 16 15 16h31q16 0 16-16t-16-15h-31q-15 0-15 15z" horiz-adv-x="687"/><glyph glyph-name="cd" unicode="" d="M5 276q-18 127 29 260 51 126 158 209t234 99 258-29q127-51 210-158t100-234-30-259Q913 38 807-45T573-145t-260 30Q186-64 104 42T5 276zm89 236q-68-168 4-335T337-56t335 5 233 239-5 334-239 233-334-4T94 512zm57-23q57 144 200 205 15 8 21-7t-8-21q-131-56-183-189-6-14-21-8t-9 20zm59-24q47 121 166 172 14 6 20-9t-8-20q-106-45-151-154-6-14-19-8t-8 19zm57-21q39 94 132 135l2 1q14 6 20-8t-8-21q-84-35-117-119-6-16-21-10t-8 22zm58-24q29 73 101 103t143 1 103-101 1-143-101-103-143-1-103 101-1 143zm58-24q-19-48 2-96t68-66 96 2 66 68-2 96-68 66-96-2-66-68zm57-23q10 24 35 35t47 1 35-35 1-47-35-35-47-1-35 35-1 47zm31-35q5-11 16-16t24 0 16 16 0 24-16 16-24 0-16-16 0-24zm106-210q-6 15 8 21 84 35 117 119 6 16 21 10t8-22q-39-95-132-136h-2q-14-6-20 8zm24-57q-6 13 9 21 108 45 151 153 6 15 20 9t9-21Q741 114 622 63q-14-6-21 8zm25-58q-6 15 8 21 131 56 183 189 6 14 21 8t9-20Q790 67 647 6V4q-15-6-21 9z" horiz-adv-x="998"/><glyph glyph-name="inbox" unicode="" d="M0 38v218q0 8 2 18l125 469q6 19 22 32t39 12h624q22 0 39-12t22-32l125-469q2-10 2-18V38q0-53-36-89t-89-37H125q-53 0-89 37T0 38zm63 0q0-26 18-45t44-18h750q25 0 44 18t18 45v218L812 725H188L63 256V38zm58 226l108 375q5 23 29 23h484q24 0 29-23l108-375q4-16-5-27t-24-12H707l-45-90q-17-35-57-35H395q-40 0-57 35l-45 90H150q-15 0-24 12t-5 27zm45 24h127q39 0 57-36l45-89h210l45 89q18 36 57 36h127l-92 343H258z" horiz-adv-x="1000"/><glyph glyph-name="globe" unicode="" d="M0 366q0 201 142 342t342 142 343-142 142-342T827 23 484-119 142 23 0 366zm63-16q7-166 125-283 52 37 109 60-43 106-47 223H63zm0 31h187q4 104 37 196-62 25-117 68Q68 532 63 381zm128 287q51-39 108-62 43 101 117 176-131-22-225-114zm20-623q88-76 205-95-64 64-105 148-53-19-100-53zm70 305q4-111 45-213 69 22 143 26v187H281zm0 31h188v157q-78 3-153 29-31-88-35-186zm47 215q69-23 141-27v218h-2q-90-76-139-191zm12-486Q389 10 467-56h2v187q-69-4-129-21zM500-56h2q78 66 127 166-61 17-129 21V-56zm0 219q74-4 143-26 41 102 45 213H500V163zm0 218h188q-4 98-36 186-74-26-152-29V381zm0 188q72 4 141 27-49 115-139 191h-2V569zm53-619q117 19 205 95-47 34-100 53-41-84-105-148zm0 832q74-75 117-176 57 23 107 62-93 92-224 114zm119-655q57-23 109-60 117 117 125 283H719q-4-117-47-223zm10 450q33-92 37-196h187q-6 151-107 264-55-43-117-68z" horiz-adv-x="969"/><glyph glyph-name="cloud" unicode="" d="M0 178q0 55 27 102t75 74q-8 21-8 43 0 58 41 99t99 42q20 0 43-8 34 74 102 119t152 45q110 0 189-73t91-181q82-16 135-80t54-151q0-97-68-166T766-25H203q-84 0-143 60T0 178zm63 0q0-58 41-99t99-41h563q70 0 121 50t50 121q0 63-39 110t-99 58q-35 8-42 15t-9 42q-8 84-70 141t-147 56q-62 0-117-34t-80-93q-10-19-12-24t-8-13-15-6-22 6q-21 10-43 8-33 0-55-22t-23-56q0-10 4-24 14-33 10-44t-37-30q-70-41-70-121z" horiz-adv-x="1000"/><glyph glyph-name="paper-plane" unicode="" d="M0 191q-2 18 14 28l937 625q8 6 18 6t18-6q15-10 13-31L844-125q-4-13-16-21-7-4-15-4-6 0-12 2L498-27l-64-107q-10-16-28-16t-27 16L264 67 20 164q-18 8-20 27zm98 11l189-77q2-2 5-3l3-2 527 564zM319 98l87-152 504 787zm183-62q12-2 20-4L787-76l125 748z" horiz-adv-x="1000"/><glyph glyph-name="fire" unicode="" d="M0 135q0 76 18 167t33 156 13 170-33 222l20-14q19-13 51-44t64-69 65-97 48-118q63 94 65 186l31-35q29-36 61-106t31-139l15 20q16 21 33 60t16 75q96-119 135-251t10-249q-14-51-31-84t-56-68-107-50-169-17q-137 0-225 85T0 135zm63 0q0-88 69-155t181-68q74 0 128 11t84 26 49 42 27 44 14 49q39 159-64 344-61-103-145-172 0 92-10 176t-25 113q-23-58-113-185 0 7-12 50t-44 123-75 137q8-125-33-310-31-143-31-225zm50-23q0 146 41 263l16 47 16-41q19-56 66-164 20 30 49 74l47 75v-53q0-66 23-135 39 20 68 41t43 36 36 40l27 30 6-32q21-119-20-218-4-10-13-10-4 0-6 2-14 6-8 19 27 73 19 168-58-66-154-113l-15-6-6 16q-24 66-28 111-31-45-58-84l-16-21-12 23q-43 98-64 149-25-84-25-217 0-16-16-16t-16 16z" horiz-adv-x="688"/><glyph glyph-name="graduation-cap" unicode="" d="M0 600q0 33 21 59t51 33l407 94q11 1 21 1t22-1l406-94q31-8 51-33t21-59-21-59-51-33l-84-19V225q0-68-84-112T500 69t-260 44-84 112v264l-84 19q-31 8-51 33T0 600zm63 0q0-25 23-31l406-94h16l406 94q23 6 23 31t-23 31l-406 94h-16L86 631q-23-6-23-31zm156-375q0-20 29-40t97-37 155-17 155 17 97 37 29 40v250l-259-61q-12-1-22-1t-21 1l-260 61V225zM875-25q0 31 20 78t42 47 43-47 20-78q0-25-19-44t-44-19-43 19-19 44zm31 188v281q0 13 9 22t22 9 23-9 9-22V163q0-14-9-23t-23-9-22 9-9 23z" horiz-adv-x="1000"/><glyph glyph-name="megaphone" unicode="" d="M0 413q0 66 36 111t89 45h289q63 0 119 45t96 125h2q58 111 150 111 102 0 160-131t59-307-59-306T781-25q-92 0-150 111h-2q-78 155-199 168-6-2-8-2v-2q-6-2-10-7-2-2-2-4-4-6-4-12V6q0-8 16-26t16-36v-32q0-25-19-43t-44-19H250q-25 0-44 19t-18 43v282q0 25-19 44t-44 18q-53 0-89 45T0 412zm63 0q0-40 18-67t44-27h219q-31 37-31 94t31 93H125q-25 0-44-27t-18-66zm169-157q18-29 18-62V-88h125v28l-2 2-2 2q-27 33-27 62v219q0 16 6 31H232zm112 157q0-40 18-67t44-27h8q86 0 162-63-13 74-13 157 0 80 13 156-76-63-162-63h-8q-25 0-44-27t-18-66zm281 0q0-47 6-94h88q25 0 44 27t18 67-18 66-44 27h-88q-6-47-6-93zm14-157q19-97 57-158t85-60q65 0 111 109t45 266-45 265-111 109q-47 0-85-60t-57-158h80q52 0 89-45t36-112-36-111-89-45h-80z" horiz-adv-x="1000"/><glyph glyph-name="database" unicode="" d="M0 53v594q0 98 131 150t307 53 306-53 131-150V53q0-97-131-150t-306-53-307 53T0 53zm63 0Q63-6 172-47t266-41 265 41T812 53v117q-46-48-150-75T438 69 213 95 63 170V53zm0 188q0-59 109-100t266-41 265 41 109 100v117q-46-49-150-75t-224-27-225 27-150 75V241zm0 187q0-58 109-99t266-41 265 41 109 99v108q-58-45-160-69t-214-23-215 23-160 69V428zm0 219q0-59 109-100t266-41 265 41 109 100-109 99-265 41-266-41-109-99zM688 38q0 13 8 22t23 9 22-9 9-22-9-23-22-9-23 9-8 23zm0 187q0 14 8 22t23 9 22-9 9-22-9-22-22-9-23 9-8 22zm0 188q0 13 8 22t23 9 22-9 9-22-9-23-22-9-23 9-8 23z" horiz-adv-x="875"/><glyph glyph-name="key" unicode="" d="M0-88V6q0 20 18 39l379 379q-22 57-22 114 0 128 92 220t221 92 220-92 92-220-92-221-220-92q-57 0-114 22l-74-73v-74q0-25-19-44t-43-18h-63v-63q0-25-19-44t-43-18h-73l-45-45q-17-18-39-18H63q-26 0-44 19T0-87zm63 0h87l45 45q18 18 45 18h73v63q0 25 18 43t44 19h63v74q0 26 17 43l61 61 35 35 10 10q60-35 127-35 103 0 176 73t73 177-73 176-176 73-177-73-73-176q0-67 35-127l-45-45L63 2v-90zm562 713q0 4 2 10 23 65 88 88 15 6 27-4 74-53 127-127 6-8 6-17 0-4-2-10-23-65-88-88-15-6-27 4-74 53-127 127-6 8-6 17zm31 0q51-70 119-119 51 18 69 69-49 68-119 119-51-18-69-69z" horiz-adv-x="1000"/><glyph glyph-name="beaker" unicode="" d="M2 354q10 49 55 68l424 170q-12 20-12 41 0 33 23 57l43 43q24 23 56 23t56-23l240-240q23-24 23-56t-23-56l-43-45q-24-21-55-21-23 0-43 12L578-91q-17-47-68-57-8-2-18-2h-4q-37 0-62 27L28 270q-36 35-26 84zm62-11q-3-16 8-28L469-78q10-10 21-10h8q16 4 24 20l146 371q-58 61-123 85t-146 33-123 23L82 366q-15-6-18-23zm186-24q0 25 19 44t44 18 44-18 18-44-18-44-44-19-44 19-19 44zm31 0q0-14 9-23t23-8 22 8 9 23-9 22-22 9-23-9-9-22zm43 144q30-6 80-13 59-6 93-13t87-33 98-70l41 102 55-55q11-11 21 0l45 45q12 10 0 22L602 690q-10 10-22 0l-45-45q-9-12 0-22l55-54zm51-332q0 14 9 23t22 9 23-9 9-23-9-22-23-9-22 9-9 22zm63 141q0 33 22 56t56 22 55-22 23-56-23-56-55-22-56 22-22 56zm31 0q0-20 14-33t33-14 33 14 14 33-14 33-33 14-33-14-14-33zm375 500q0 33 22 56t56 22 56-22 22-56-22-56-56-22-56 22-22 56zm31-172q0 14 9 22t22 9 23-9 9-22-9-22-23-9-22 9-9 22zm0 172q0-20 14-33t33-14 33 14 14 33-14 33-33 14-33-14-14-33z" horiz-adv-x="1000"/><glyph glyph-name="truck" unicode="" d="M0 319v343q0 40 27 67t67 27h469q39 0 66-27t27-67v-62h125q51 0 78-41l125-187q16-24 16-53V131q0-39-27-66t-67-27h-35q-12-42-45-68t-76-26-76 26-45 68H465q-12-42-45-68t-76-26-76 26-45 68h-35q-40 0-67 27t-27 66v94q-39 0-67 27T0 319zm63 0q0-14 8-23t23-8h469q13 0 22 8t9 23v343q0 14-9 23t-22 9H94q-14 0-23-9t-8-23V319zm93-188q0-13 9-22t23-9h35q11 41 45 67t76 27 76-27 45-67h164q12 41 45 67t76 27 76-27 45-67h35q14 0 23 9t8 22v188q0 10-5 17L807 524q-8 14-26 14H656V319q0-39-27-67t-66-27H156v-94zm125-62q0-26 19-44t44-19 44 19 18 44-18 44-44 18-44-18-19-44zm407 0q0-26 18-44t44-19 44 19 18 44-18 44-44 18-44-18-18-44zm0 219v187q0 14 8 22t23 9h31q18 0 25-13l94-141q6-8 6-18v-46q0-14-9-23t-22-9H719q-14 0-23 9t-8 23zm31 0h125v46l-94 141h-31V288z" horiz-adv-x="1000"/><glyph glyph-name="money" unicode="" d="M3 243q31 97 107 173 59 61 203 145 129 74 178 123 55 55 74 121 6 16 16 27 14 12 29 16 35 8 61-16l312-312q26-27 16-63-31-99-108-173-58-61-203-145Q559 65 511 16q-55-53-75-121-6-16-15-27-14-12-30-16-35-8-60 16L18 180q-25 27-15 63zm60-18l99-99L277 11l99-99q25 79 84 140t128 102l138 80 129 101 83 140-157 157-155 155q-24-78-83-139T414 546l-139-80-128-101-84-140zM337 26l21 29q22 27 47 53 22 23 55 49 11 9 21 0 12-12 0-24h-2q-31-25-52-47-24-23-43-48l-20-28q-2-2-2-4-12-12-23 0-8 10-2 20zm27 359q2 18 10 33 8 18 19 32 0 2-5 5-4 2-4 7t4 10 8 5 7-4q4-4 8-6 8 8 20 16t28 12 29 1 24-15q8-8 8-18t-8-15q-5-6-15-4-6 2-18 4-9 4-20 3t-23-11q20-20 51-57 14 8 31 14 16 6 32 8t31-3 31-17q14-12 20-25 4-14 2-30 0-15-10-33-8-19-22-37 8-6 16-13 4-2 5-7t-3-9-9-5-9 3q-9 8-15 16-18-18-35-24-16-6-34-6-15 2-28 8t-20 15-8 17 8 16 13 7 13-3 13-8 13-7 17 0 20 12q-21 21-56 62-32-17-65-19-29-2-50 15-14 12-20 26t-4 29zm42 11q-1-7 1-14t8-10q10-10 22-9t33 10q-30 32-49 51-6-8-10-14t-5-14zm112 143q-9 10 0 22 2 2 4 2 32 25 53 47 23 23 43 49l19 27q2 4 4 4 12 12 22 0 10-10 2-22l-22-29q-21-27-47-53-21-23-54-48-12-10-24 1zm4-195q32-35 53-56 6 5 10 13t6 16 0 14-9 14-15 9-15 1-16-5q-4-2-14-6z" horiz-adv-x="1001"/><glyph glyph-name="food" unicode="" d="M0 116q0 33 23 55t55 23h84q22 121 117 201t221 80q102 0 186-55t126-144l143 70q12 6 24 2t17-16 2-23-16-18l-150-76q4-11 6-21h84q33 0 56-23t22-55q0-24-16-41L875-48v-24q0-33-22-56t-56-22H203q-33 0-55 22t-23 56v24L16 75Q0 92 0 116zm63 0L188-25v-47q0-16 15-16h594q15 0 15 16v47l125 141q0 15-15 15H78q-15 0-15-15zm130 78h34q21 95 97 157t176 62q84 0 153-46t103-120l27 15q-37 82-113 132t-170 50q-111 0-198-72T193 194zm55 291q-16 39 16 113 25 61 13 90h-2v6q0 15 16 15 10 0 14-9 17-42-14-114-25-62-12-92v-3q0-16-15-16-10 0-14 8v2h-2zm10-291h33q20 68 77 112t132 44q66 0 120-36t79-95l30 14q-32 66-93 107t-136 41q-86 0-153-52t-89-135zm66 0h33q18 43 57 68t86 26 86-26 57-68h5l24 11q-22 51-68 83t-104 31q-61 0-108-35t-68-90zm69 0h37q29 31 70 31t68-31h39q-37 62-107 62t-107-62zm76 429v2q-16 39 13 114 28 60 14 89v6q0 16 14 16 12 0 15-10 18-41-13-113-26-63-14-92 2-2 2-4 0-15-16-15-9 0-15 7zm160-134v2q-16 39 16 111 25 62 11 90v6q0 15 16 15 10 0 14-9 17-40-14-114-26-60-14-90v-2q2-2 2-3 0-16-15-16-10 0-14 10h-2zm160-295h18q0 2-1 4t-1 4z" horiz-adv-x="1000"/><glyph glyph-name="shop" unicode="" d="M0 413v31q0 31 20 56l93 125q4 6 12 14v148q0 26 19 44t44 19h624q26 0 44-19t19-44V639q8-8 12-14l93-125q20-25 20-56v-32q0-39-27-66t-67-27V-88q0-25-18-43t-44-19H156q-25 0-44 19T94-88v407q-39 0-67 27T0 412zm63 0q0-14 8-23t23-9h58l125 219h-89q-16 0-26-12L68 463q-5-9-5-19v-31zm93-501h203v313q0 14 9 22t23 9h234q14 0 22-9t9-22V-88h188v407H156V-88zm32 469h130l63 219h-68zm0 281h624v125H188V662zm164-281h132v219h-70zm39-468h234v312H391V-87zm125 468h132l-62 219h-70V381zm103 219l63-219h130L688 600h-69zm104 0l125-219h58q14 0 23 9t8 23v31q0 10-5 19l-94 125q-10 12-26 12h-89z" horiz-adv-x="1000"/><glyph glyph-name="diamond" unicode="" d="M0 502q0 28 18 45l160 158q17 20 43 20h558q26 0 43-20l160-158q18-17 18-43 0-23-16-43L547-3q-20-22-47-22T453-3L16 461Q0 479 0 502zm63 4h134l84 84-72 61zm27-31l307-328-196 328H90zm146 0L467 92l-76 383H236zm4 31h143l-78 65zm2 156l61-50 51 50H242zm84-70l80-66 71 58-86 71zm96-117l78-389 78 389H422zm8 31h140l-70 57zm0 156l70-58 68 58H430zm95-78l69-58 80 66-65 63zm8-492l231 383H609zm71 55l306 328H799zm13 359h143l-65 65zm29 156l51-50 61 50H646zm73-72l84-84h133L791 651z" horiz-adv-x="1000"/><glyph glyph-name="t-shirt" unicode="" d="M4 580q-14 41 20 69l156 125q17 13 39 13h562q22 0 39-13l157-125q33-28 19-69l-62-187q-10-29-39-39-10-4-20-4-18 0-31 8V-25q0-25-19-44t-44-19H219q-26 0-44 19t-19 44v383q-13-8-31-8-10 0-19 4-30 10-39 39zm59 20l62-187 94 62V-25h562v500l94-62 63 187-157 125H650q-13-41-54-67t-96-27-96 27-54 67H219zm320 125q14-27 45-45t72-18 72 18 45 45H383z" horiz-adv-x="1000"/><glyph glyph-name="wallet" unicode="" d="M0 22v625q0 70 51 121t121 51h640q40 0 67-28t27-66V444q94-71 94-188T906 69V22q0-70-51-121t-121-51H172q-70 0-121 51T0 22zm63 0q0-45 32-77t77-33h562q45 0 78 33t32 77v47H563q-65 0-111 46t-46 110 46 110 111 46h281v63q0 13-9 22t-23 9H172q-63 0-109 39V22zm0 625q0-45 31-76v123q0 13 9 22t22 9h656q14 0 23-9t9-22V538q15 0 31-6v193q0 14-9 22t-23 9H172q-45 0-77-32t-32-77zm62-98q23-11 47-11h609v31H125v-20zm0 51h656v31H125v-31zm0 62h656v32H125v-32zm344-437q0-39 27-66t67-28h320q54 51 54 125 0 59-35 104v-2l-7-14q-20-25-51-25H563q-40 0-67-28t-27-66zm31 0q0 25 19 44t44 19 43-19 19-44-19-44-43-18-44 18-19 44z" horiz-adv-x="1000"/></font>
</defs>
</svg>
